# xmcd
#
# Track frame offsets:
#	150
#	10928
#	30803
#	48817
#	70537
#	94929
#	117555
#	140935
#	171144
#
# Disc length: 2699 seconds
#
# Revision: 3
# Processed by: cddbd v1.5.1PL2 Copyright (c) Steve Scherf et al.
# Submitted via: EasyCDDAExtractor 8.0.2.1
#
DISCID=700a8909
DTITLE=Ozzy Osbourne - The Playhouse Edinburg 16-02-86 Disc 1
DYEAR=1986
DGENRE=Hard Rock
TTITLE0=Intro
TTITLE1=Bark At The Moon
TTITLE2=Suicide Solution
TTITLE3=Never Know Why
TTITLE4=Mr Crowley
TTITLE5=Shot In The Dark
TTITLE6=I Don't Know
TTITLE7=Killer Of Giants
TTITLE8=Never
EXTD=
EXTT0=
EXTT1=
EXTT2=
EXTT3=
EXTT4=
EXTT5=
EXTT6=
EXTT7=
EXTT8=
PLAYORDER=
